<svg xmlns="http://www.w3.org/2000/svg" xmlns:xlink="http://www.w3.org/1999/xlink" width="500" zoomAndPan="magnify" viewBox="0 0 375 374.999991" height="500" preserveAspectRatio="xMidYMid meet" version="1.0"><defs><g/><clipPath id="c7947ce47e"><path d="M 103.269531 67.285156 L 275.769531 67.285156 L 275.769531 278.785156 L 103.269531 278.785156 Z M 103.269531 67.285156 " clip-rule="nonzero"/></clipPath></defs><rect x="-37.5" width="450" fill="#ffffff" y="-37.499999" height="449.999989" fill-opacity="1"/><rect x="-37.5" width="450" fill="#000000" y="-37.499999" height="449.999989" fill-opacity="1"/><g clip-path="url(#c7947ce47e)"><path fill="#ffffff" d="M 103.273438 278.75 L 103.273438 145.46875 L 157.484375 145.46875 L 157.484375 165.707031 L 205.191406 165.730469 C 209.558594 165.730469 213.648438 164.035156 216.714844 160.960938 C 219.789062 157.886719 221.472656 153.800781 221.46875 149.453125 L 221.445312 137.769531 C 221.429688 128.84375 214.15625 121.566406 205.226562 121.550781 L 160.230469 121.570312 L 123.125 67.417969 L 205.285156 67.390625 C 244.003906 67.464844 275.546875 98.992188 275.617188 137.671875 L 275.636719 149.355469 C 275.671875 168.191406 268.363281 185.902344 255.054688 199.226562 C 241.75 212.554688 224.046875 219.890625 205.214844 219.890625 L 157.484375 219.929688 L 157.484375 278.75 Z M 103.273438 278.75 " fill-opacity="1" fill-rule="nonzero"/></g><g fill="#ffffff" fill-opacity="1"><g transform="translate(194.228703, 151.645153)"><g><path d="M 28.234375 195.328125 L -49.71875 72.859375 L -31.546875 46.234375 L 110.90625 74.171875 L 92.59375 101 L -12.5 79.484375 L 45.140625 170.5625 Z M 28.234375 195.328125 "/></g></g></g></svg>